<!-- From https://searchfox.org/mozilla-esr78/source/browser/themes/shared/icons/link.svg
   - Upscaled on https://www.iloveimg.com/resize-image
   - Hand edited by jscher2000
   - This Source Code Form is subject to the terms of the Mozilla Public
   - License, v. 2.0. If a copy of the MPL was not distributed with this
   - file, You can obtain one at http://mozilla.org/MPL/2.0/. -->
<svg xmlns="http://www.w3.org/2000/svg" width="64" height="64" viewBox="0 0 64 64" fill="context-fill" fill-opacity="context-fill-opacity">
	<path d="M 18.667969 18.667969 C 20.230469 17.105469 22.761719 17.105469 24.324219 18.667969 L 45.335938 39.679688 C 46.898438 41.242188 46.898438 43.773438 45.335938 45.335938 C 43.773438 46.898438 41.242188 46.898438 39.679688 45.335938 L 18.667969 24.324219 C 17.105469 22.761719 17.105469 20.230469 18.667969 18.667969 Z M 18.667969 18.667969 "/>
	<path d="M 9.414062 18.089844 L 17.941406 9.558594 C 18.316406 9.179688 18.828125 8.964844 19.363281 8.964844 C 19.894531 8.964844 20.410156 9.179688 20.785156 9.558594 L 33.542969 22.320312 L 33.601562 22.261719 C 36.703125 19.140625 36.703125 14.097656 33.601562 10.976562 L 25.089844 2.464844 C 21.96875 -0.640625 16.925781 -0.640625 13.804688 2.464844 L 2.464844 13.804688 C -0.640625 16.925781 -0.640625 21.96875 2.464844 25.089844 L 10.976562 33.601562 C 14.058594 36.6875 19.050781 36.722656 22.175781 33.679688 L 9.414062 20.9375 C 9.035156 20.558594 8.820312 20.046875 8.820312 19.511719 C 8.820312 18.976562 9.035156 18.464844 9.414062 18.089844 Z M 9.414062 18.089844 "/>
	<path d="M 61.664062 39.035156 L 53.148438 30.519531 C 50.027344 27.414062 44.984375 27.414062 41.863281 30.519531 L 41.804688 30.578125 L 54.558594 43.335938 C 54.941406 43.710938 55.152344 44.222656 55.152344 44.757812 C 55.152344 45.292969 54.941406 45.804688 54.558594 46.179688 L 46.03125 54.707031 C 45.65625 55.085938 45.144531 55.300781 44.609375 55.300781 C 44.074219 55.300781 43.5625 55.085938 43.1875 54.707031 L 30.441406 41.960938 C 27.398438 45.085938 27.433594 50.078125 30.519531 53.160156 L 39.03125 61.671875 C 42.152344 64.777344 47.195312 64.777344 50.316406 61.671875 L 61.65625 50.332031 C 64.769531 47.210938 64.773438 42.160156 61.664062 39.035156 Z M 61.664062 39.035156 "/>
</svg>
